<?xml version="1.0" encoding="utf-8"?>
<svg version="1.1" xmlns:xlink="http://www.w3.org/1999/xlink" width="80px" height="80px" xmlns="http://www.w3.org/2000/svg">
  <defs>
    <filter x="803px" y="340px" width="80px" height="80px" filterUnits="userSpaceOnUse" id="filter65">
      <feOffset dx="8" dy="8" in="SourceAlpha" result="shadowOffsetInner" />
      <feGaussianBlur stdDeviation="5" in="shadowOffsetInner" result="shadowGaussian" />
      <feComposite in2="shadowGaussian" operator="atop" in="SourceAlpha" result="shadowComposite" />
      <feColorMatrix type="matrix" values="0 0 0 0 0.843137254901961  0 0 0 0 0.843137254901961  0 0 0 0 0.843137254901961  0 0 0 1 0  " in="shadowComposite" />
    </filter>
    <g id="widget66">
      <path d="M 13.75 40.3125  L 15.78125 38.28125  L 21.71875 44.21875  L 19.6875 46.25  L 17.5 46.25  L 17.5 42.5  L 13.75 42.5  L 13.75 40.3125  Z M 30.78125 23.1640625  C 31.2239583333333 22.7213541666667  31.6145833333333 22.6822916666667  31.953125 23.046875  C 32.3177083333333 23.3854166666667  32.2786458333333 23.7760416666667  31.8359375 24.21875  L 20.46875 35.5859375  C 20.0260416666667 36.0286458333333  19.6354166666667 36.0677083333333  19.296875 35.703125  C 18.9322916666667 35.3645833333333  18.9713541666667 34.9739583333333  19.4140625 34.53125  L 30.78125 23.1640625  Z M 10 50  L 21.25 50  L 42.5 28.75  L 31.25 17.5  L 10 38.75  L 10 50  Z M 33.75 15  L 45 26.25  L 48.59375 22.65625  C 49.3229166666667 21.9270833333333  49.6875 21.0416666666667  49.6875 20  C 49.6875 18.9583333333333  49.3229166666667 18.0729166666667  48.59375 17.34375  L 42.65625 11.40625  C 41.9270833333333 10.6770833333333  41.0416666666667 10.3125  40 10.3125  C 38.9583333333333 10.3125  38.0729166666667 10.6770833333333  37.34375 11.40625  L 33.75 15  Z M 56.69921875 3.30078125  C 58.8997395833333 5.50130208333333  60 8.15104166666666  60 11.25  L 60 48.75  C 60 51.8489583333333  58.8997395833333 54.4986979166667  56.69921875 56.69921875  C 54.4986979166667 58.8997395833333  51.8489583333333 60  48.75 60  L 11.25 60  C 8.15104166666667 60  5.50130208333333 58.8997395833333  3.30078125 56.69921875  C 1.10026041666667 54.4986979166667  0 51.8489583333333  0 48.75  L 0 11.25  C 0 8.15104166666666  1.10026041666667 5.50130208333333  3.30078125 3.30078125  C 5.50130208333333 1.10026041666666  8.15104166666667 0  11.25 0  L 48.75 0  C 51.8489583333333 0  54.4986979166667 1.10026041666666  56.69921875 3.30078125  Z " fill-rule="nonzero" fill="#027db4" stroke="none" fill-opacity="0.972549019607843" transform="matrix(1 0 0 1 805 342 )" />
    </g>
  </defs>
  <g transform="matrix(1 0 0 1 -803 -340 )">
    <use xlink:href="#widget66" filter="url(#filter65)" />
    <use xlink:href="#widget66" />
  </g>
</svg>