<?xml version="1.0" encoding="utf-8"?>
<svg version="1.1" xmlns:xlink="http://www.w3.org/1999/xlink" width="165px" height="165px" xmlns="http://www.w3.org/2000/svg">
  <g transform="matrix(1 0 0 1 -385 -839 )">
    <path d="M 385 839  L 550 839  L 550 1004  L 385 1004  L 385 839  " fill-rule="nonzero" fill="#cccccc" stroke="none" />
    <path d="M 397 851  L 538 851  L 538 992  L 397 992  L 397 851  " fill-rule="nonzero" fill="#ffffff" stroke="none" />
    <path d="M 483.175 888.5  C 476.245 888.5  470.8 883.055  470.8 876.125  C 470.8 869.195  476.245 863.75  483.175 863.75  C 490.105 863.75  495.55 869.195  495.55 876.125  C 495.55 883.055  490.105 888.5  483.175 888.5  " fill-rule="nonzero" fill="#cccccc" stroke="none" />
    <path d="M 401 988  L 401 914.85  L 434.25 881.6  L 480.8 908.2  L 507.4 901.55  L 534 908.2  L 534 988  L 401 988  " fill-rule="nonzero" fill="#169bd5" stroke="none" />
  </g>
</svg>